<?xml version="1.0" encoding="UTF-8" standalone="no"?>
<!-- Created with Inkscape (http://www.inkscape.org/) -->
<svg
   width="210mm"
   height="297mm"
   viewBox="0 0 210 297"
   version="1.1"
   id="svg1"
   xml:space="preserve"
   sodipodi:docname="actilogo.svg"
   inkscape:version="1.4.2 (f4327f4, 2025-05-13)"
   xmlns:inkscape="http://www.inkscape.org/namespaces/inkscape"
   xmlns:sodipodi="http://sodipodi.sourceforge.net/DTD/sodipodi-0.dtd"
   xmlns="http://www.w3.org/2000/svg"
   xmlns:svg="http://www.w3.org/2000/svg">

  <sodipodi:namedview
     id="namedview1"
     pagecolor="#ffffff"
     bordercolor="#000000"
     borderopacity="0.25"
     inkscape:showpageshadow="2"
     inkscape:pageopacity="0.0"
     inkscape:pagecheckerboard="0"
     inkscape:deskcolor="#d1d1d1"
     inkscape:document-units="mm"
     inkscape:zoom="1.3772587"
     inkscape:cx="304.22752"
     inkscape:cy="621.16144"
     inkscape:window-width="1920"
     inkscape:window-height="991"
     inkscape:window-x="-9"
     inkscape:window-y="-9"
     inkscape:window-maximized="1"
     inkscape:current-layer="layer4">
    <inkscape:page
       x="0"
       y="0"
       width="210"
       height="297"
       id="page3"
       margin="111.03881 5.3790426 116.41785 0"
       bleed="0" />
  </sodipodi:namedview>

  <defs id="defs1">
    <!-- Background like the photo (teal gradient + vignette) -->
    <linearGradient id="bgLinear" x1="0" y1="0" x2="0" y2="1">
      <stop offset="0%" stop-color="#0f7f7b"/>
      <stop offset="55%" stop-color="#0b6e6a"/>
      <stop offset="100%" stop-color="#084f52"/>
    </linearGradient>

    <radialGradient id="bgVignette" cx="50%" cy="45%" r="80%">
      <stop offset="0%" stop-color="#000000" stop-opacity="0"/>
      <stop offset="65%" stop-color="#000000" stop-opacity="0.12"/>
      <stop offset="100%" stop-color="#000000" stop-opacity="0.28"/>
    </radialGradient>

    <style><![CDATA[
      .draw {
        fill: none;
        stroke: #ffffff;
        stroke-linecap: round;
        stroke-linejoin: round;

        /* write-on animation */
        stroke-dasharray: 1000;
        stroke-dashoffset: 1000;
        animation: draw 2.2s ease forwards;
      }

      /* sequence delays (14 paths) */
      .d1  { animation-delay: 0.00s; }
      .d2  { animation-delay: 0.20s; }
      .d3  { animation-delay: 0.35s; }
      .d4  { animation-delay: 0.50s; }
      .d5  { animation-delay: 0.65s; }
      .d6  { animation-delay: 0.80s; }
      .d7  { animation-delay: 0.95s; }
      .d8  { animation-delay: 1.10s; }
      .d9  { animation-delay: 1.25s; }
      .d10 { animation-delay: 1.40s; }
      .d11 { animation-delay: 1.55s; }
      .d12 { animation-delay: 1.70s; }
      .d13 { animation-delay: 1.85s; }
      .d14 { animation-delay: 2.00s; }

      @keyframes draw { to { stroke-dashoffset: 0; } }

      @media (prefers-reduced-motion: reduce) {
        .draw { animation: none; stroke-dashoffset: 0; }
      }
    ]]></style>
  </defs>



  <g inkscape:groupmode="layer" id="layer3" inkscape:label="stroke1">
    <!-- AV -->
    <path
       class="draw d1"
       pathLength="1000"
       style="stroke-width:2.452"
       d="M 14.023932,169.0076 H 2.0651681 l -0.4802716,-0.81646 v -0.5283 l 0.576326,-1.29674 21.3720895,-49.37192 1.00857,-0.57633 8.98108,0.14408 1.440815,0.86449 0.240136,0.38422 0.384217,0.43224 12.246927,28.57617 13.447607,-29.3446 0.67238,-0.67238 0.816462,-0.24014 h 0.528299 10.854139 l 0.768435,0.33619 0.576326,0.72041 -0.04803,0.62435 -0.432245,0.96055 -22.716849,49.08376 c 0,0 -0.480272,0.33619 -0.624353,0.5283 -0.144082,0.19211 -0.432245,0.38422 -0.432245,0.38422 l -7.156048,-0.19211 -0.432244,-0.72041 -0.67238,-1.10462 -13.543661,-32.5144 -7.252102,15.65686 -0.09605,0.38422 7.44421,-0.19211 0.816462,0.33619 0.432244,0.33619 0.480272,0.62435 0.33619,0.43225 0.144082,0.67238 2.977684,6.14747 -0.04803,0.5283 -0.288163,0.38422 -0.67238,0.24014 -13.39958,0.0961 -1.056597,0.28816 -0.816462,0.38422 -0.720408,0.48027 -1.104625,1.68095 -1.056597,3.07374 -0.912516,1.92109 z"
       id="path5" />
  </g>

  <g inkscape:groupmode="layer" id="layer4" inkscape:label="stroke2">
    <path class="draw d2"  pathLength="1000" style="stroke-width:0.4" d="m 111.01633,150.85181 4.38089,0.0679 0.1698,0.54337 -0.1698,0.61128 -0.13584,0.54336 -0.1698,0.61129 -0.54337,1.01881 -0.47544,0.61129 -0.57733,0.54336 -0.37356,0.40753 -0.81505,0.47544 -0.91693,0.33961 -0.95089,0.40752 -1.4603,0.23772 -0.88296,0.0679 h -0.84901 -0.54337 l -0.95089,-0.0679 h -0.61128 l -0.84901,-0.27168 c 0,0 -0.27169,-0.0679 -0.50941,-0.23772 -0.23772,-0.16981 -1.25653,-0.67921 -1.25653,-0.67921 l -1.22257,-0.67921 -0.54337,-0.44148 -0.37356,-0.61129 -1.120691,-1.29049 -0.203761,-0.47544 -0.237723,-1.05278 -0.373565,-1.08672 v -0.37357 l -0.101881,-1.15465 v -0.78109 l 0.03396,-0.71316 0.13584,-1.42634 v -0.71317 l 0.237723,-0.88297 0.373565,-0.74712 0.577324,-0.91693 1.086729,-1.08673 0.84901,-0.71317 0.88297,-0.64525 c 0,0 0.30564,-0.30564 0.44149,-0.3396 0.13584,-0.034 1.01881,-0.47544 1.01881,-0.47544 l 1.46029,-0.33961 0.98485,-0.0679 1.42633,0.0679 1.15466,0.10188 0.95089,0.10188 0.64524,0.27169 0.57733,0.20376 0.64524,0.3396 0.37357,0.27169 0.47544,0.13584 0.3396,0.5094 0.40753,0.50941 0.44148,0.57732 0.47545,0.40753 0.27168,0.64524 0.30564,0.47545 0.23772,0.57732 0.0679,0.47545 0.27168,0.57732 -0.13584,0.54337 0.034,0.13584 -4.41485,-0.0679 -0.13584,-0.37356 -0.3396,-0.78109 -0.0679,-0.44149 -0.74713,-0.44148 -0.5094,-0.40752 -1.08673,-0.23773 -0.20377,-0.0679 h -1.49425 c 0,0 -0.5094,0.1698 -0.64525,0.20376 -0.13584,0.034 -0.849,0.50941 -0.849,0.50941 l -0.40753,0.5094 -0.5094,0.54337 -0.30565,0.64525 c 0,0 -0.10188,0.23772 -0.13584,0.44148 -0.034,0.20376 -0.1698,0.84901 -0.1698,0.84901 0,0 -0.10188,0.40752 -0.10188,0.54337 0,0.13583 -0.0679,0.71316 -0.0679,0.849 0,0.13584 -0.034,0.88297 -0.034,0.88297 l 0.10188,0.81505 c 0,0 0.13584,0.30564 0.13584,0.57733 0,0.27168 0.3396,0.88296 0.3396,0.88296 l 0.44149,0.47545 0.27168,0.40752 0.20376,0.30564 0.67921,0.27169 0.13584,0.1698 0.64525,0.13584 0.61128,0.1698 h 0.95089 l 0.67921,0.0679 0.67921,-0.20376 0.78108,-0.40752 0.61129,-1.01881 0.44148,-0.61129 z" id="path7"/>

    <path class="draw d3"  pathLength="1000" style="stroke-width:0.4" d="m 124.19825,143.21701 0.14408,8.837 0.38422,0.62435 0.57633,0.19211 0.91251,-0.048 0.81646,-0.24013 0.38422,-0.0961 0.19211,0.0961 0.096,4.46652 -1.48884,0.0961 -1.68095,-0.14408 h -2.20925 l -0.72041,-0.72041 -1.39278,-0.91252 -0.43225,-0.91251 -0.24013,-1.53687 -0.0961,-2.35333 -0.048,-2.35334 0.0961,-2.97768 v -2.06517 l -2.92966,-0.14408 0.0961,-3.74612 h 2.64149 l 0.19211,-4.80272 4.51455,0.0961 -0.0961,4.9468 3.60204,-0.0961 0.0961,3.60204 z" id="path8"/>

    <path class="draw d4"  pathLength="1000" style="stroke-width:0.4" d="m 130.87403,156.95278 4.27442,-0.048 -0.14409,-17.48189 -4.46652,0.048 z" id="path9"/>

    <path class="draw d5"  pathLength="1000" style="stroke-width:0.4" d="m 129.86546,135.7728 -0.072,-0.6964 0.048,-0.38421 0.21613,-0.55232 0.1921,-0.3602 0.1681,-0.28816 0.21612,-0.31218 0.26415,-0.12007 0.31218,-0.28816 0.31217,-0.16809 0.33619,-0.14409 0.62436,-0.072 0.57632,-0.072 0.55232,0.072 0.45625,0.14408 0.36021,0.24014 0.48027,0.33619 0.33619,0.48027 0.16809,0.48027 0.14409,0.48028 0.048,0.43224 -0.024,0.43224 -0.072,0.48028 -0.12007,0.38421 c 0,0 -0.24014,0.26415 -0.26415,0.36021 -0.024,0.096 -0.24013,0.40823 -0.24013,0.40823 l -0.45626,0.28816 -0.33619,0.1681 -0.38422,0.16809 -0.45626,0.072 -0.48027,0.024 -0.62435,-0.072 -0.5283,-0.0721 -0.40823,-0.1921 -0.31218,-0.26415 -0.33619,-0.31218 -0.40823,-0.64837 -0.12007,-0.43224 z" id="path10"/>

    <path class="draw d6"  pathLength="1000" style="stroke-width:0.4" d="m 141.51272,132.68303 6.38454,18.5763 6.28266,-18.4065 4.85633,0.10188 -8.45612,24.24768 -5.67138,-0.0679 -8.42216,-24.38352 z" id="path11"/>

    <path class="draw d7"  pathLength="1000" style="stroke-width:0.4" d="m 159.64754,134.48293 0.30564,-0.74713 0.30564,-0.5094 0.57733,-0.40753 0.74712,-0.30564 0.64525,-0.10188 h 0.91693 c 0,0 0.37356,0.20376 0.5094,0.20376 0.13585,0 0.71317,0.3396 0.71317,0.3396 l 0.37357,0.40753 0.30564,0.5094 0.13584,0.54337 0.0679,0.74712 -0.034,0.88297 -0.13584,0.50941 -0.47545,0.61128 c 0,0 -0.40752,0.23773 -0.54336,0.30565 -0.13584,0.0679 -0.23772,0.20376 -0.44148,0.23772 -0.20377,0.034 -0.98486,0.0679 -0.98486,0.0679 l -0.98485,0.034 -0.6792,-0.3396 -0.64525,-0.47545 -0.3396,-0.40752 c 0,0 -0.23772,-0.40753 -0.23772,-0.67921 0,-0.27168 -0.20377,-0.88297 -0.20377,-0.88297 z" id="path12"/>

    <path class="draw d8"  pathLength="1000" style="stroke-width:0.4" d="m 164.67366,157.06655 -0.10188,-17.7273 -4.75444,0.13585 0.0679,17.52353 z" id="path13"/>

    <path class="draw d9"  pathLength="1000" style="stroke-width:0.4" d="m 79.292851,157.38502 -4.082309,-0.24013 9.65346,-24.78202 3.842174,0.0961 9.077134,24.34978 -3.698092,0.14408 -2.449385,-5.76326 -10.037678,-0.28816 z" id="path16"/>

    <!-- path17: NORMAL (stroke white, fill none) -->
    <path class="draw d10" pathLength="1000" style="stroke-width:0.4" d="m 83.183052,147.25129 7.10802,0.14408 -3.602037,-9.5574 z" id="path17"/>

    <path class="draw d11" pathLength="1000" style="stroke-width:0.4" d="m 168.88475,133.2264 -0.13585,23.90807 2.98851,-0.034 0.13584,-2.61495 0.50826,0.40205 0.34819,0.26415 0.43225,0.22813 0.50428,0.28816 1.12864,0.50429 0.48027,0.21612 0.63636,0.21612 0.28817,0.12007 0.58833,0.10806 0.26415,0.024 0.60034,0.0961 0.56432,0.06 0.50428,-0.048 0.58833,-0.06 0.45626,-0.024 0.62436,-0.22813 0.79244,-0.32418 1.06861,-0.39623 0.5403,-0.19211 0.79245,-0.85248 0.51629,-0.5283 0.60034,-1.4168 0.20412,-0.39622 0.096,-0.24014 0.21613,-0.72041 0.096,-0.68438 0.072,-0.64837 0.06,-1.0566 -0.024,-1.0686 -0.012,-1.36878 c 0,0 -0.0961,-1.03258 -0.12007,-1.08061 -0.024,-0.048 -0.19211,-0.93653 -0.19211,-0.93653 l -0.40823,-0.72041 -0.92452,-1.4168 -0.57633,-0.67238 c 0,0 -0.87649,-0.81646 -0.92452,-0.84047 -0.048,-0.024 -1.39279,-0.85249 -1.39279,-0.85249 l -0.8885,-0.42023 c 0,0 -0.60034,-0.20412 -0.73242,-0.24014 -0.13207,-0.036 -1.29673,-0.20411 -1.36877,-0.20411 -0.072,0 -0.68439,0.012 -0.82847,0 -0.14408,-0.012 -0.49228,-0.048 -0.60034,-0.048 -0.10806,0 -0.86449,0.14408 -1.02058,0.19211 -0.15608,0.048 -0.20411,0.048 -0.39622,0.12007 -0.19211,0.072 -0.3602,0.10806 -0.50428,0.1921 -0.14409,0.0841 -0.76844,0.45626 -0.76844,0.45626 0,0 -0.28816,0.072 -0.38422,0.12007 -0.096,0.048 -0.64836,0.25214 -0.69639,0.30017 -0.048,0.048 -0.37221,0.24014 -0.37221,0.24014 l -0.32418,0.40823 -0.036,-8.04455 z" id="path18"/>

    <!-- path19: NORMAL -->
    <path class="draw d12" pathLength="1000" style="stroke-width:0.4" d="m 172.53759,151.14149 -0.62435,-0.84047 -0.12007,-1.00857 -0.048,-1.27272 0.096,-0.81647 0.12007,-1.00857 v -0.57632 l 0.31217,-0.40823 0.74443,-0.74442 0.43224,-0.38422 0.76843,-0.45626 1.00858,-0.62435 0.7204,-0.33619 1.17667,-0.24014 1.36877,0.0961 c 0,0 0.64837,0.14408 0.76844,0.16809 0.12007,0.024 0.96054,0.31218 0.96054,0.31218 0,0 0.33619,0.28816 0.50429,0.38421 0.16809,0.0961 0.55231,0.62436 0.55231,0.62436 l 0.40823,0.69639 c 0,0 0.28816,0.48027 0.31218,0.60034 0.024,0.12007 0.28816,0.67238 0.28816,0.67238 0,0 0.19211,0.43225 0.19211,0.57633 0,0.14408 0,0.76843 0,0.76843 0,0 0,0.50429 0,0.60034 0,0.0961 0.048,0.26415 0.048,0.43225 0,0.16809 -0.0961,1.03258 -0.0961,1.03258 0,0 0,0.33619 -0.024,0.48027 -0.024,0.14408 -0.12007,0.81646 -0.14409,0.93653 -0.024,0.12007 -0.048,0.21612 -0.096,0.33619 -0.048,0.12007 -0.21612,0.5283 -0.24014,0.64837 -0.024,0.12007 -0.14408,0.38422 -0.14408,0.38422 l -0.38421,0.57632 c 0,0 -0.14409,0.24014 -0.24014,0.36021 -0.096,0.12006 -0.21612,0.1921 -0.3602,0.28816 -0.14409,0.096 -0.12007,0.096 -0.43225,0.16809 -0.31218,0.072 -0.38422,0.0961 -0.74442,0.21613 -0.3602,0.12006 -0.33619,0.1921 -0.81646,0.21612 -0.48027,0.024 -0.55231,0 -0.86449,0.024 -0.31218,0.024 -0.57633,0.072 -0.8885,0.024 -0.31218,-0.048 -0.28817,0 -0.72041,-0.14409 -0.43224,-0.14408 -0.5283,-0.24013 -0.91252,-0.3602 -0.38421,-0.12007 -0.33619,-0.048 -0.57632,-0.21612 -0.24014,-0.1681 -0.33619,-0.14408 -0.5283,-0.33619 -0.19211,-0.19211 -0.14408,-0.19211 -0.40823,-0.36021 -0.26415,-0.16809 -0.33619,-0.21612 -0.55231,-0.45625 -0.21613,-0.24014 -0.28817,-0.38422 -0.40824,-0.45626 -0.12006,-0.072 -0.21612,-0.21612 -0.21612,-0.21612 z" id="path19"/>

    <path class="draw d13" pathLength="1000" style="stroke-width:0.4" d="m 199.98512,152.02999 3.12177,0.024 0.14408,0.48027 -0.14408,0.72041 c 0,0 -0.14408,0.60034 -0.1681,0.69639 -0.024,0.0961 -0.19211,0.60034 -0.19211,0.6964 0,0.096 -0.12006,0.31217 -0.16809,0.43224 -0.048,0.12007 -0.38422,0.33619 -0.57633,0.55231 -0.19211,0.21612 -0.7204,0.74442 -0.7204,0.74442 0,0 -0.12007,0.24014 -0.36021,0.33619 -0.24013,0.0961 -0.8885,0.45626 -1.29673,0.48028 -0.40824,0.024 -1.51286,0.38421 -1.51286,0.38421 0,0 0.12007,0 -0.40823,0.024 -0.5283,0.024 -1.0566,0.024 -1.39279,0.048 -0.33619,0.024 -0.57632,0.048 -0.81646,-0.048 -0.24014,-0.0961 -0.86449,-0.14408 -1.22469,-0.36021 -0.36021,-0.21612 -1.82504,-0.55231 -1.82504,-0.55231 l -0.7204,-0.48027 c 0,0 -0.21613,-0.14408 -0.45626,-0.3602 -0.24014,-0.21613 -0.50429,-0.38422 -0.64837,-0.5283 -0.14408,-0.14409 -0.28816,-0.19211 -0.45626,-0.48028 -0.16809,-0.28816 -0.26415,-0.50428 -0.40823,-0.64836 -0.14408,-0.14408 -0.57632,-0.74442 -0.62435,-0.86449 -0.048,-0.12007 -0.12007,-0.28816 -0.19211,-0.38422 -0.072,-0.096 -0.19211,-0.3602 -0.26415,-0.55231 -0.072,-0.19211 -0.21612,-0.72041 -0.21612,-0.72041 v -0.55231 c 0,0 0,-0.67238 0,-0.76844 0,-0.0961 0,-0.62435 0,-0.62435 l -0.048,-1.27272 -0.048,-0.96054 -0.14409,-1.03259 0.19211,-0.91251 0.28817,-0.8885 0.33619,-0.81647 0.40823,-0.96054 0.43224,-0.79245 0.38422,-0.64836 0.79245,-0.91252 c 0,0 0.50428,-0.3602 0.60034,-0.40823 0.096,-0.048 1.63292,-0.57633 1.63292,-0.57633 0,0 1.15265,-0.40823 1.29673,-0.43224 0.14408,-0.024 1.34476,-0.024 1.48885,-0.024 0.14408,0 1.12863,-0.048 1.29673,-0.048 0.16809,0 0.93653,0.1921 1.12864,0.24013 0.19211,0.048 0.86449,0.26415 1.03258,0.33619 0.1681,0.072 0.6964,0.19211 0.81646,0.28817 0.12007,0.096 0.76844,0.52829 0.86449,0.62435 0.0961,0.096 0.55232,0.43224 0.67239,0.55231 0.12006,0.12007 0.3602,0.45626 0.3602,0.45626 0,0 0.43224,0.26415 0.45626,0.40823 0.024,0.14408 0.26415,0.72041 0.31217,0.86449 0.048,0.14408 0.33619,0.69639 0.36021,0.86449 0.024,0.16809 0.0961,0.60034 0.14408,0.76843 0.048,0.1681 0.14408,0.67238 0.16809,0.86449 0.024,0.19211 0.14409,1.17667 0.14409,1.17667 0,0 0.024,0.50428 0.024,0.60034 0,0.096 -0.096,2.3053 -0.096,2.3053 l -12.17489,-0.048 0.0961,2.1132 0.19211,0.60034 c 0,0 0.28816,0.50428 0.48027,0.69639 0.19211,0.19211 0.91252,0.67238 0.91252,0.67238 l 0.76843,0.48027 0.55231,0.26415 0.76844,0.21613 1.0566,0.14408 c 0,0 0.3602,0.072 0.50428,0.096 0.14408,0.024 0.98456,-0.024 1.08061,-0.048 0.0961,-0.024 0.74442,-0.096 0.74442,-0.096 0,0 0.26415,-0.14408 0.40823,-0.19211 0.14409,-0.048 0.55232,-0.28816 0.57633,-0.40823 0.024,-0.12007 0.28816,-0.38422 0.28816,-0.57633 0,-0.1921 0.0961,-0.48027 0.0961,-0.60033 0,-0.12007 -0.12007,-0.67239 -0.12007,-0.67239 z" id="path20"/>

    <!-- path21: NORMAL -->
    <path class="draw d14" pathLength="1000" style="stroke-width:0.4" d="m 191.53234,146.24272 h 9.07714 c 0,0 -0.048,-0.8885 -0.072,-0.98456 -0.024,-0.096 -0.096,-0.55231 -0.26415,-0.86449 -0.16809,-0.31217 -0.31217,-0.43224 -0.43224,-0.62435 -0.12007,-0.19211 -0.31218,-0.38422 -0.67238,-0.55231 -0.36021,-0.1681 -0.57633,-0.33619 -0.74442,-0.43225 -0.1681,-0.0961 -0.79245,-0.16809 -0.91252,-0.21612 -0.12007,-0.048 -0.28816,-0.072 -0.48027,-0.12007 -0.19211,-0.048 -1.15265,-0.048 -1.27272,-0.072 -0.12007,-0.024 -0.40823,-0.048 -0.5283,-0.048 -0.12007,0 -0.84048,-0.048 -1.15265,0.072 -0.31218,0.12007 -1.03259,0.62435 -1.03259,0.62435 0,0 -0.024,0.048 -0.16809,0.24014 -0.14408,0.19211 -0.48027,0.55231 -0.55231,0.7204 -0.072,0.1681 -0.12007,0.31218 -0.19211,0.50429 -0.072,0.19211 -0.19211,0.38422 -0.26415,0.55231 -0.072,0.1681 -0.19211,0.43225 -0.26415,0.57633 -0.072,0.14408 -0.19211,0.45626 -0.19211,0.45626 z" id="path21"/>
  </g>
</svg>
